<?xml version="1.0" encoding="utf-8"?>
<!-- Generator: Adobe Illustrator 24.3.0, SVG Export Plug-In . SVG Version: 6.00 Build 0)  -->
<svg version="1.1" id="Layer_1" xmlns="http://www.w3.org/2000/svg" xmlns:xlink="http://www.w3.org/1999/xlink" x="0px" y="0px"
	 viewBox="0 0 841.9 841.9" style="enable-background:new 0 0 841.9 841.9;" xml:space="preserve">
<style type="text/css">
	.st0{fill:#C6FFFF;stroke:#000000;stroke-width:2;stroke-miterlimit:10;}
	.st1{opacity:0.8;fill:#FFFFFF;stroke:#000000;stroke-width:2;stroke-miterlimit:10;enable-background:new    ;}
	.st2{fill:#414042;}
	.st3{fill:#F0FFDD;}
	.st4{fill:#FFFFFF;stroke:#000000;stroke-miterlimit:10;}
	.st5{opacity:0.8;fill:#33069E;stroke:#000000;stroke-width:2;stroke-miterlimit:10;enable-background:new    ;}
	.st6{fill:#1F097C;stroke:#000000;stroke-width:2;stroke-miterlimit:10;}
	.st7{fill:#1F066D;stroke:#000000;stroke-width:2;stroke-miterlimit:10;}
	.st8{fill:#160656;stroke:#000000;stroke-width:2;stroke-miterlimit:10;}
	.st9{fill:#FFFFFF;stroke:#000000;stroke-width:3;stroke-miterlimit:10;}
	.st10{fill:#231F20;stroke:#E5E51E;stroke-width:4;stroke-miterlimit:10;}
	.st11{fill:#EDEDED;}
	.st12{fill:#110F0F;stroke:#E5E51E;stroke-width:4;stroke-miterlimit:10;}
</style>
<image style="display:none;overflow:visible;enable-background:new    ;" width="450" height="950" xlink:href="../../../../Downloads/254137875_571096570663065_1327983642435274809_n.jpg"  transform="matrix(1 0 0 1 267.25 -76.125)">
</image>
<rect x="-1032" y="-266.5" class="st0" width="840.6" height="842"/>
<polyline class="st1" points="-733.7,934.2 -628.3,898.4 -735.2,863.9 -842.5,905.2 "/>
<g>
	<g>
		<path class="st2" d="M-537,208.4c3.2,0,3.2-5,0-5S-540.2,208.4-537,208.4L-537,208.4z"/>
	</g>
</g>
<g>
	<g>
		<path class="st2" d="M-537,208.4c3.2,0,3.2-5,0-5S-540.2,208.4-537,208.4L-537,208.4z"/>
	</g>
</g>
<path class="st3" d="M542.5,1119.4"/>
<path class="st4" d="M-558.3,212.1"/>
<path class="st4" d="M-596.9,219.7"/>
<path class="st4" d="M-682.5,14.8"/>
<text transform="matrix(0.9792 0 0 1 -859.3203 860.676)" style="fill:#33069E; font-family:'DemosNextPro-Heavy'; font-size:90px;">LEVEL</text>
<path class="st4" d="M-347.2-173.1"/>
<path class="st4" d="M-565,239.9"/>
<polyline class="st5" points="-405.1,244.9 -537.4,298.2 -535.4,-81.3 -404.4,-127.2 -535.4,-165.9 -672.4,-119.2 -536.4,-82.2 
	-404.4,-127.2 "/>
<polyline class="st5" points="-614.3,625.6 -478.3,662.6 -479.3,1043 -614.8,996.3 "/>
<text transform="matrix(1.1071 0 0 1 -590.3477 -98.5062)" style="fill:#FFFFFF; font-family:'DemosNextPro-Heavy'; font-size:75.2853px;">UP</text>
<text transform="matrix(1.1071 0 0 1 -590.3477 -98.5062)" style="fill:none;stroke:#000000;stroke-miterlimit:10; font-family:'DemosNextPro-Heavy'; font-size:75.2853px;">UP</text>
<polygon class="st6" points="-841.1,1072.7 -841.1,906.6 -734.6,934.7 -734.6,1116.4 "/>
<path class="st0" d="M-538.7-80.3"/>
<polygon class="st7" points="-626.6,1067.8 -626.4,898.2 -734.6,934.7 -734.6,1116.4 "/>
<polyline class="st8" points="-406.1,245.1 -535.7,298 -534,-80.8 -404.6,-127.1 -404.6,228.2 "/>
<polygon class="st9" points="-217.5,-387.1 -98.2,-412.3 -216.1,-432.5 -332.1,-407.3 "/>
<text transform="matrix(0.9792 0 0 1 -347.8569 -445.3568)" style="fill:#33069E; font-family:'DemosNextPro-Heavy'; font-size:90px;">NEWS</text>
<path class="st4" d="M-104.5-199.3"/>
<polyline class="st5" points="-90.2,101.2 -214.7,154.6 -212.8,-224.9 -89.5,-270.9 -212.8,-309.6 -341.7,-262.9 -213.7,-225.9 
	-89.5,-270.9 "/>
<polyline class="st5" points="-340.6,-261 -212.6,-224 -213.6,156.5 -341.1,109.8 "/>
<path class="st0" d="M-215.9-224"/>
<polyline class="st8" points="-91.1,101.4 -213.1,154.4 -211.5,-224.5 -89.7,-270.8 -89.7,84.6 "/>
<polygon class="st6" points="-337.2,-295.8 -337.2,-405.3 -217.8,-386.7 -217.8,-266.9 "/>
<polygon class="st7" points="-96.8,-299 -96.6,-410.8 -217.8,-386.7 -217.8,-266.9 "/>
<image style="overflow:visible;enable-background:new    ;" width="651" height="326" xlink:href="../../../../Downloads/pirate.jpg"  transform="matrix(5.2474 0 0 7.4235 -275.6624 -266.4486)">
</image>
<rect x="-1.9" y="528.7" class="st0" width="41.3" height="42.6"/>
<path class="st0" d="M161.8,450.3c-2.3,4-6.6,10-13.8,15.1c-4.3,3.1-17.9,12.8-34.4,8.3c-17.2-4.7-24-21.4-24.8-23.4l-19.3-6.9
	l22,49.5l34.4,1.4l22-6.9l19.3-9.6v-42.6L161.8,450.3z"/>
<path class="st10" d="M322.9,281.1c-2.5-1.9-6.3,0.3-7.1,3.3c-0.9,3,0.2,6.1,1.3,9c1.1,2.9,2.1,6.1,1.1,9
	c-14.6,0.9-27.3,9.9-39.1,18.7c-1.3,1-2.7,2-3.4,3.5c-0.8,1.6-0.8,3.5-1.2,5.3c-1.2,6-7.6,10.4-13.7,9.3c3.8,2.7,9.3,1.4,13.1-1.3
	c3.8-2.7,6.5-6.7,9.8-9.9c7.2-7.1,17.5-10.8,27.6-10.1c2.7,5.1,5.4,11.4,2.4,16.3c-2.1,3.4-6.2,4.9-9.8,6.6c-7,3.3-13.1,8.4-19,13.5
	c-1.2,1-2.4,2.1-3,3.6s-0.2,3.4,1.1,4.2c3.4,1.1,7.1-0.6,10.3-2.4c5.2-2.8,10.5-5.6,15.7-8.4c2.6,5.1,4.9,11.6,1.4,16.1
	c-4.1,5.3-12.9,3.7-18.1,7.9c-3,2.4-4.3,6.3-5.4,10c-0.5,1.5-0.9,3.3,0,4.6c0.4,0.5,1,0.9,1.6,1.2c5.7,2.8,13.6-1.6,14.2-8
	c2.8-0.9,5.5,2.5,5,5.4c-0.4,2.9-2.8,5.1-5,7.1c-5.8,5.1-11.8,9.9-18.1,14.4c6.4,4.7,6.7,13.9,6.4,21.8c3.4-0.8,6.2-3.8,6.7-7.2
	c0.3-2-0.1-4.1,0.2-6.1c0.7-4.9,5.9-8.8,10.8-7.9c-0.3,3.4,0.6,6.6,1.4,9.9c0.2,0.9,0.5,1.9,1,2.7c2,2.9,6.3,2.7,9.8,2.1
	c1.9,8.5,3.8,17,5.7,25.4c0.9,4,1.8,8,3.8,11.6s5.1,6.7,9.1,7.7c6.6,1.6,13.4-3.4,16-9.8c9.9,1.6,21.4,1.9,29.5-4
	c4.3-3.1,7.1-7.9,9.7-12.6c10.5-19.6,18.6-40.5,24-62.1c0.9-3.8,1.8-7.6,3.6-11.1c1.9-3.7,4.8-6.9,7.1-10.4c4-6.1,6-13.2,8.1-20.2
	c2.8-9.7,5.7-19.5,5.5-29.6c-0.1-4.3-0.7-8.5-1.3-12.7c-1-6.8-2.5-14.4-8.3-18c-3-1.8-8.4-1-8.3,2.6c-6.5,1.1-13.2,0.8-19.5-0.9
	c-4.5-1.2-8.9-3-13.6-2.7c-2.9,0.2-5.7,1.3-8.6,1.5c-6.7,0.5-13.5-3.4-19.8-1.3c-1.4,0.5-2.7,1.2-4.2,1.5c-2.9,0.5-5.7-0.9-8.5-1.9
	C341,274.5,331.8,275.3,322.9,281.1z"/>
<path class="st10" d="M572.9,508.4c-2.6-8-12.6-10.8-21-10.5c-8.4,0.3-17.2,2.3-25-1c-4-1.7-7.2-4.7-10.6-7.4
	c-13.1-10.4-29.1-17.1-45.7-19.2c-4.5-0.5-9.1-0.7-13.3,0.8c-5.6,2-10.6,7-16.5,5.9c-3.2-0.6-5.7-3-8.8-4c-5-1.7-10.4,0.2-15.4,2.1
	c-12.3,4.7-24.5,9.5-36.8,14.2c-3.2,1.2-6.3,2.5-9.2,4.3c-4,2.6-7.6,6.5-12.4,6.9c-2.5,0.2-4.9-0.6-7.4-0.3
	c-5.3,0.5-9.2,5.4-14.5,6.4c-2.4,0.5-4.8,0.1-7.2,0.4c-2.4,0.4-5,2-5.1,4.4c-0.6,7.5-1.2,15-1.7,22.5c-8.1,12.3-11.9,27.3-10.7,41.9
	c2.3-2.2,2.5-5.8,3.4-8.9c1.6-5.2,5.5-9.2,8.5-13.7s5.2-10.3,2.9-15.2c1.8,12.4,3.6,25,1.8,37.4c-1.4,9.4-5.1,18.9-12.7,24.7
	c-3.3,2.5-7.1,4.2-10,7c-3.6,3.4-5.5,8.2-8.4,12.2s-7.3,7.7-12.2,7c8.5,1.8,17.5,1.7,25.6-1.4c8.1-3.1,15-9.6,17.7-17.8
	c-3.8,13.1-7.5,26.2-11.3,39.3c-2,6.8-4,13.7-7.8,19.6c-4.6,7.3-12.2,14.9-9.2,23c3.1,1.9,7.4,1.5,10-1s3.3-6.8,1.6-10
	c4.8,0.7,10-1.6,12.6-5.7c2.3-0.8,5.1-1.1,7.5-1c2.5,0.1,5,1.3,6.1,3.6c1,2.2,0.3,4.9-0.9,7s-2.8,4.1-3.7,6.3
	c-0.8,2.1-1.1,4.3-1.8,6.5c-1.4,4.2-4.5,7.5-7,11.1c-3.2,4.5-5.6,9.6-7.9,14.6c-1.1,2.2-2.1,5.1-0.5,7c3.5,0.3,7.9,0.2,9.6-2.9
	c0.7-1.2,0.8-2.6,1.1-4c0.9-4.1,3.5-7.6,5.7-11.2c2.6-4.2,4.8-8.6,6.7-13.2c1.7-4.4,3.1-8.9,4-13.4c0.4-2.1,0.8-4.3,2.2-6
	c1.4-1.7,4-2.5,5.7-1.1c-0.8,5.9-1.8,11.7-3.1,17.5c-1.3,6.2-2.9,12.4-5.9,17.9c-1.4,2.6-3,5-4.1,7.7c-1,2.7-1.3,5.9,0,8.5
	c-1.4,10.8-3.4,21.4-4.7,32.3c-0.3,2.6-0.7,5.3-1.7,7.8c-1.7,4.2-5.3,8.6-3.4,12.7c2.9,0.6,6.3,1,8.4-1.1c1.6-1.6,1.8-4,1.9-6.3
	c0.4-7.1,0.7-14.2,1.1-21.3c0.1-2.1,0.2-4.2,1.1-6.1c0.9-1.9,2.8-3.4,4.9-3.3c3.3,0.2,4.8,4.1,5.5,7.3c3.6,17.1,2.7,35.1-2.6,51.7
	c0.9,1.3,3.1,1,4.2-0.2s1.4-2.8,1.7-4.4c1.2-7.2,2.5-14.3,3.7-21.5c1.4-8.1,2.8-16.2,4.2-24.3"/>
<path class="st10" d="M621,333.1c-8.2-7.1-18.8-10.8-29.1-14.4c-5.1-1.8-10.2-3.5-15.3-5.3c-2.5,5.4,0.7,11.9,5.3,15.7
	c4.6,3.8,10.4,5.9,15.4,9.1s9.5,8.5,9,14.4c-4.2-1.4-8.6-2.5-13.1-3.1c-1.7-0.2-4.1-0.1-4.6,1.6c-0.2,0.6,0,1.3,0.1,2
	c1.6,6.6,3.4,13.7,8.5,18.3c2.2,2,4.9,3.4,6.3,6c2.1,3.7,0.6,8.3-0.2,12.5c-2,9.5-0.8,19.3,0.5,29c-2.5-3.7-5.1-7.5-7.6-11.2
	c-1.8-2.7-5.1-5.6-7.7-3.7c-1.4,1.1-1.5,3.1-1.6,4.9c0,5.3-0.1,10.6-0.1,15.9c-3.2,3.4-9.7,0.4-12.9,3.8c-1.2,1.3-1.5,3.1-1.8,4.8
	c-1.2,7-2.4,14-3.6,21c-0.9,5.1-2.1,10.8-6.5,13.4c-3.9,2.4-9,1.4-13.5,0.4c-10.7-2.5-21.4-5-32.1-7.5c-7-1.6-14.3-3.5-19.4-8.5
	c-6.6-6.6-7.6-16.8-7.6-26.1c0-7.9,0.5-16,3.4-23.4c3.2-8.4,9.1-15.4,15-22.2c1.9-2.2,3.7-4.3,5.6-6.5c1.4-1.6,2.9-3.3,4.9-4.2
	c2.1-0.9,4.5-0.8,6.6-1.4c6.7-1.9,9.3-9.9,11-16.7c4.8-19.3,10.6-38.4,17.3-57.1c0.6-1.8,1.4-3.7,2.9-4.8c2.1-1.6,5.1-1.2,7.7-0.7
	c13,2.4,21.6,9.2,32.4,16.3c5.3,3.5,10.2,7.7,14.4,12.5C614.4,322.1,617.1,329.7,621,333.1z"/>
<path class="st11" d="M565.8,313.9v-70.2h-14.2l-20.2,7.8l-17.9,9.2l-14.7,7.3l-13.8,6.4l-38.5-1.4l0,0.2l-37.4,1.4l-13.8-6.4
	l-14.7-7.3l-17.9-9.2l-20.2-7.8h-14.2v70.2l2.8,22l16.5,2.8l-1.4,26.1c-4.1-0.5-8.3-0.9-12.4-1.4c-4.8,9.7-3.9,15.2-2.3,18.3
	c2.6,5.3,7.5,4.8,10.1,10.5c2.8,6.1-1.2,10,1,16.9c1.7,5.3,5.9,8.6,9.1,10.7l4.3,47.5l16.6,39.1c-1.8,9.1-3.8,26.2,4.1,44.2
	c3.7,8.3,8.3,18.9,19.9,24c14.6,6.5,29.2-0.5,31.7-1.7l12-29.9l1.1,0l0,0.2l2.7-0.1l8.7,0.3l0-0.6l1.1,0l12,29.9
	c2.5,1.2,17.1,8.2,31.7,1.7c11.6-5.1,16.2-15.7,19.9-24c7.9-18,5.9-35.1,4.1-44.2l16.6-39.1l4.3-47.5c3.2-2.1,7.4-5.4,9.1-10.7
	c2.2-6.9-1.8-10.8,1-16.9c2.6-5.7,7.5-5.2,10.1-10.5c1.6-3.1,2.5-8.6-2.3-18.3c-4.1,0.5-8.3,0.9-12.4,1.4l-1.4-26.1l16.5-2.8
	L565.8,313.9z M444,359l3.1-6.9l3,6.7l5.5,9.2l8.3,20.2l1.4,30.3l-19,2.3l-17.4-2.1l1.4-30.3l8.3-20.2L444,359z M389.5,439.2
	c-0.1,3.6-3.1,6.4-6.7,6.3c-3.5-0.1-6.3-3-6.2-6.6l0.3-15.6c0.1-3.2,2.4-5.9,5.6-6.3h0.2c4-0.5,7.5,2.6,7.4,6.6L389.5,439.2z
	 M382.3,364.6c-2.7-0.5-12-2-18.3-9.2c-3.7-4.2-5.6-9.5-6.4-28.4c-0.4-8.9-0.5-21,0.5-35.3c3.5-0.7,7.2-1.3,11-1.8
	c16.2-2.1,30.9-1.4,43.1,0.5l24.8,5l-0.9,28.4c-0.8,4-2.5,10.6-6.9,17.4c-9.2,14.2-22.7,19.2-26.3,20.6
	C398.1,363.5,391.2,366,382.3,364.6z M478.2,508.4l-1.4,4.1l-36.4,0.4l0,0l-23.1-0.3l-1.4-4.1l-12.4-1.8l2.3-15.6l46-0.9l36.5,0.8
	l2.3,15.6L478.2,508.4z M511.3,445.3c-3.6,0.1-6.6-2.7-6.7-6.3l-0.6-15.6c-0.1-4,3.4-7.1,7.4-6.6h0.2c3.2,0.4,5.5,3.1,5.6,6.3
	l0.3,15.6C517.6,442.3,514.8,445.2,511.3,445.3z M536.5,326.8c-0.8,18.9-2.7,24.2-6.4,28.4c-6.3,7.2-15.6,8.7-18.3,9.2
	c-8.9,1.4-15.8-1.1-20.6-2.8c-3.6-1.4-17.1-6.4-26.3-20.6c-4.4-6.8-6.1-13.4-6.9-17.4l-0.9-28.4l24.8-5c12.2-1.9,26.9-2.6,43.1-0.5
	c3.8,0.5,7.5,1.1,11,1.8C537,305.8,536.9,317.9,536.5,326.8z"/>
<path class="st10" d="M361.2,753.4c0.3,19.6,1.7,39.1,4,58.5c0.8,6.8,1.9,14,6,19.5c-2.5-22.6-0.7-45.7,5.2-67.8
	c1.9,26.7,7.7,53.2,17.2,78.3c0.2-22.6,0.5-45.3,0.7-67.9c3.5,0.1,6.4,3.2,7.4,6.6c1.1,3.4,0.8,7,0.5,10.5
	c-0.7,10.6-0.8,21.3-0.1,31.9c0.2,2.4,0.5,5.1,2.5,6.3c2.1,1.3,5,0.4,7.3,1.4c5,2.2,3.4,11.1,8.4,13.3c1-12.4-2.2-24.8-3.8-37.1
	s-1.4-25.8,5.5-36.2c1.5,1.3,3.7,1.8,5.6,1.2c1,19.7,2,39.4,3,59c1-13.3,2-26.6,2.9-40c0.3-3.6,1-8,4.4-9.4
	c1.4,25.5,1.5,51,0.5,76.5c5.2-8.5,7.5-18.8,6.5-28.8c-0.5-4.5-1.6-9-1.4-13.6s1.8-9.4,5.7-11.8c4.8,18.7,6.9,38.1,6.4,57.4
	c2.9-4.4,3.2-10,3.3-15.3c0.5-17,0.9-34,1.4-51c3.7,9.1,5.7,18.9,5.8,28.8c3.9-4.3,3.9-10.8,3.7-16.6c-0.4-14.1-0.8-28.3-1.2-42.4
	c-0.1-4.1,0.9-9.6,5-9.9c4,31,3.7,62.6-0.8,93.5c2.7,0.7,5.3-1.8,6-4.5c0.7-2.7,0.3-5.6,0.7-8.4c0.7-5.9,4.9-10.7,7.9-15.9
	c10-17.5,6.4-39.3,10.1-59.1c0.2-1.3,0.7-2.9,2-3.4c3.1,9,4.5,18.5,4.4,28c-0.1,6.8-0.9,13.5-1.8,20.2c-1.5,12.1-3,24.1-4.5,36.2
	c4-0.6,6.8-4.5,7.8-8.4c1-3.9,0.5-8.1,0.7-12.1c0.5-11.7,5.7-22.7,6.8-34.3c0.7-7.9-0.5-15.9,1.1-23.6c0.5-2.5,2.3-5.6,4.8-4.8
	c0.9,0.3,1.6,1.1,2.1,1.9c4.9,7.1,3.6,16.6,2.6,25.2c-1.8,15-2.1,30.2-1.2,45.4c2.6-0.1,3.8-3.3,4.2-5.9c4.4-26.7,5.5-53.9,3.2-80.9
	c12.3,16.6,10.3,39.2,11.5,59.8c0.7,12.4,2.9,24.8,6.4,36.7c2.7-6.3,1.7-13.5,0.9-20.4c-2.8-24.5-2.2-49.3,1.6-73.7
	c5,17.3,8.9,34.9,11.5,52.6c7.3-15.9,3-34.5-1.5-51.4c-2.9-10.9-5.8-21.8-8.7-32.7c-1.2-4.4-1.4-10.5,3-11.8
	c10.7,11.5,18.5,25.8,22.3,41.1c2-4.9,0.6-10.5-0.8-15.7c-4.6-17.5-8.4-35.1-11.4-52.9c8.8,2,15.5,10.8,15,19.8
	c4.1-5.9,3.1-13.9,1.9-21c-2.7-16.5-5.5-32.9-8.2-49.4c2.3-2.9,7.1-1.1,9.5,1.7c2.5,2.7,4.4,6.4,8,7.4c5,1.4,9.8-4.5,9-9.6
	c-0.9-5.1-5.5-8.9-10.5-10.6c-1.9-0.7-4-1.2-5.5-2.6c-1.7-1.6-2.3-4-2.7-6.3c-1.6-7.6-3.1-15.2-4.7-22.7c-1.8-8.8-2.8-16.3-3.7-25.2
	c-0.5-5.3-1.2-10.8-4-15.3c-0.7-1.1-1.5-2.2-1.7-3.4c-0.2-1.4,0.4-2.8,0.9-4.1c3.6-8.9,5.3-18.6,5-28.2"/>
<path class="st12" d="M597.9,461.9c-0.2,2.8-2.8,4.9-5.3,6.1c-2.6,1.3-5.4,2.1-7.4,4.1c-0.9,0.9-1.6,2-2.5,2.9
	c-2.1,1.9-5.2,2.2-8.1,2.3c-4.7,0.2-8.8,0-13.5,0.2l-36.4-4.2c-0.3-0.1-0.7-0.2-1-0.3c-10.8-5-17.4-10.9-21.5-15.4
	c-5.2-5.8-6.1-9.2-12.8-15.1c-4.2-3.7-9.2-8-17-10.1c-6.2-1.7-11.7-1.3-15.6-0.6c-1.1,0.2-2,0.9-2.4,1.9c-0.5-0.7-1.2-1.1-2-1.3
	c-3.9-0.7-9.4-1.1-15.6,0.6c-7.8,2.1-12.8,6.4-17,10.1c-6.7,5.9-7.6,9.3-12.8,15.1c-4.1,4.5-10.7,10.4-21.5,15.4
	c-0.3,0.1-0.7,0.2-1,0.3l-36.4,4.2c-4.7-0.2-8.8,0-13.5-0.2c-2.9-0.1-6-0.4-8.1-2.3c-0.9-0.9-1.6-2-2.5-2.9c-2-2-4.8-2.8-7.4-4.1
	c-2.5-1.2-5.1-3.3-5.3-6.1c-0.8,3.3-1.1,6.7-0.4,10.1c0.7,3.4,2.4,6.5,5.2,8.4c1.1,0.8,2.4,1.4,3.7,2c8.5,3.6,20,5.1,28.7,1.8
	l11.5-0.3c1.9,0,3.4,1.5,3.4,3.3v0.1c3.8,0,6.2,2.9,10,3.1c6.1,0.4,12.3,0.4,18.4,0c2.3-0.1,5.4-0.5,5.5-2.7l1.1-8.4
	c0.2-1.7,1.6-2.9,3.3-2.9l49.7-0.4c1.7,0,3.1-1.4,3.3-3c0.4,1.4,1.7,2.4,3.2,2.4l49.7,0.4c1.7,0,3.1,1.2,3.3,2.9l1.1,8.4
	c0.1,2.2,3.2,2.6,5.5,2.7c6.1,0.4,12.3,0.4,18.4,0c3.8-0.2,6.2-3.1,10-3.1v-0.1c0-1.8,1.5-3.3,3.4-3.3l11.5,0.3
	c8.7,3.3,20.2,1.8,28.7-1.8c1.3-0.6,2.6-1.2,3.7-2c2.8-1.9,4.5-5,5.2-8.4C599,468.6,598.7,465.2,597.9,461.9z"/>
</svg>
