<?xml version="1.0" encoding="utf-8"?>
<!-- Generator: Adobe Illustrator 26.3.1, SVG Export Plug-In . SVG Version: 6.00 Build 0)  -->
<svg version="1.1" id="Layer_1" xmlns="http://www.w3.org/2000/svg" xmlns:xlink="http://www.w3.org/1999/xlink" x="0px" y="0px"
	 viewBox="0 0 200 200" style="enable-background:new 0 0 200 200;" xml:space="preserve">
<style type="text/css">
	.st0{fill:url(#SVGID_1_);}
	.st1{fill:url(#SVGID_00000180361882558803763520000007666383831170700687_);}
	.st2{fill:url(#SVGID_00000104673815299937620340000008086533048168690080_);stroke:#497EC0;stroke-miterlimit:10;}
	.st3{fill:#497EC0;}
</style>
<g>
	<linearGradient id="SVGID_1_" gradientUnits="userSpaceOnUse" x1="6.5472" y1="98.1401" x2="200" y2="98.1401">
		<stop  offset="0" style="stop-color:#00AEEF"/>
		<stop  offset="7.767797e-03" style="stop-color:#00ACEE"/>
		<stop  offset="0.1367" style="stop-color:#009FE0"/>
		<stop  offset="0.2734" style="stop-color:#0094D4"/>
		<stop  offset="0.4187" style="stop-color:#0F8ACB"/>
		<stop  offset="0.5762" style="stop-color:#3884C5"/>
		<stop  offset="0.7548" style="stop-color:#457FC2"/>
		<stop  offset="1" style="stop-color:#497EC0"/>
	</linearGradient>
	<path class="st0" d="M190.27,71.92c0,2.5-6.39,14.18-4.17,18.35c2.22,4.17-0.56,19.74-6.95,6.67
		c-6.39-13.07-5.56-20.01-13.07-20.01c-7.51,0-1.39-8.34-12.23-5.28c-10.84,3.06-19.74,0.28-21.13-2.22c-1.39-2.5-10.29-2.22-5,1.95
		c5.28,4.17,7.8,9.66,12.8,5.95c5-3.71,3.52,1.11,6.3,0.93s5.93,5.37,0,8.52c-5.93,3.15,0,3.89-9.45,8.71
		c-9.45,4.82-16.49,10.93-18.72,2.59c-2.22-8.34-16.86-25.94-18.72-25.94c-1.85,0-2.96,2.04,1.48,7.97s10.56,22.05,14.82,22.05
		s2.78,5.56,6.49,5.93c3.71,0.37,11.83-4.41,14.08-3.34c2.25,1.07-1.11,15.19-12.79,20.01c-11.67,4.82-14.82,17.42-12.42,19.46
		s3.52,11.12,1.67,13.71c-1.85,2.59-13.71,2.04-11.86,7.78c1.85,5.74-0.93,7.6-4.63,6.11c-3.71-1.48,6.11,3.89-6.3,8.71
		s-24.65-6.11-25.76-12.23c-1.11-6.11-12.6-15.75-9.82-18.34s-0.74-16.31-2.22-16.86c-1.48-0.56-6.67-10.93-4.08-12.42
		c2.59-1.48-1.48-6.86-5.93-5.37s2.22-8.15-7.23-5.56c-9.45,2.59-10.38-2.22-15.75-5c-5.37-2.78-6.3-21.12-0.19-29.28
		c6.11-8.15,14.27-19.83,20.2-20.01c5.93-0.19,22.24-7.97,19.27,4.26c-2.96,12.23,1.67-1.3,7.78,4.63c6.11,5.93,6.3,4.82,7.04,0.37
		c0.74-4.45,13.34,6.11,17.05,1.85c3.71-4.26,8.71,5,10.38-2.22c1.67-7.23,2.59-8.52-3.15-8.71c-5.74-0.19-14.08,1.67-12.04-2.59
		c2.04-4.26-1.48-9.82-5.93-1.85c-4.45,7.97-1.67-6.67-5.56-8.89c-3.89-2.22-6.3-7.97-7.04-1.85c-0.74,6.11,7.6,5.19,5.74,6.86
		c-1.85,1.67-3.15,8.15-5.93,1.11c-2.78-7.04-4.63-10.93-8.52-8.15c-3.89,2.78-10.93,4.45-11.86,7.78
		c-0.93,3.34-7.78,7.97-9.82,2.59c-2.04-5.37,2.78-3.71,6.67-11.49c3.89-7.78,4.26,6.11,8.15-1.11c3.89-7.23-2.22-6.3,1.3-7.41
		c3.52-1.11,5.19-3.89,2.41-5c-2.78-1.11,0.74-5.93,5-5.74c4.26,0.19,1.67-6.67,6.49-4.08s-10.56,6.86-3.71,10.38
		c6.86,3.52,5-5.93,9.64-6.49c4.63-0.56,4.26-1.67,1.67-4.82C72.15,11.72,95.87,0.78,98.28,2.08c2.41,1.3,12.6,4.26,20.2,1.67
		c3.82-1.31,4.15-1.67,3.64-2.18c-10.29-1.86-20.06-2.05-28.15-0.65c0,0-72.14,3.38-85.66,77.77
		c-13.53,74.39,54.1,122.3,102.01,117.23c47.9-5.07,86.79-39.45,89.61-107.08c0.13-3,0.1-5.93-0.06-8.77
		c-0.16-0.7-0.3-1.55-0.42-2.58C198.33,67.19,190.27,69.42,190.27,71.92z"/>
	
		<linearGradient id="SVGID_00000111871865447460936430000002373110394819633544_" gradientUnits="userSpaceOnUse" x1="113.6957" y1="161.6272" x2="130.66" y2="161.6272">
		<stop  offset="0" style="stop-color:#FFFFFF"/>
		<stop  offset="0.0456" style="stop-color:#D3EFE0"/>
		<stop  offset="0.0989" style="stop-color:#A7DFC1"/>
		<stop  offset="0.1576" style="stop-color:#7FD0A5"/>
		<stop  offset="0.2208" style="stop-color:#5DC38C"/>
		<stop  offset="0.2896" style="stop-color:#40B878"/>
		<stop  offset="0.3658" style="stop-color:#28B067"/>
		<stop  offset="0.4525" style="stop-color:#16A95B"/>
		<stop  offset="0.5562" style="stop-color:#09A452"/>
		<stop  offset="0.6936" style="stop-color:#02A24C"/>
		<stop  offset="1" style="stop-color:#00A14B"/>
	</linearGradient>
	<path style="fill:url(#SVGID_00000111871865447460936430000002373110394819633544_);" d="M130.34,151.74c0,0-6.34-2.75-6.76,2.96
		c-0.42,5.71-6.76-3.17-6.76,3.17c0,6.34,0.85,8.24-2.32,10.78c-3.17,2.54,4.02,6.13,7.4,0.63
		C125.26,163.79,132.24,157.24,130.34,151.74z"/>
	
		<linearGradient id="SVGID_00000169530239496945011750000000988527961984602545_" gradientUnits="userSpaceOnUse" x1="15.302" y1="91.642" x2="199.8625" y2="91.642">
		<stop  offset="0" style="stop-color:#2BB673"/>
		<stop  offset="0.0407" style="stop-color:#2AB471"/>
		<stop  offset="1" style="stop-color:#00A14B"/>
	</linearGradient>
	<path style="fill:url(#SVGID_00000169530239496945011750000000988527961984602545_);stroke:#497EC0;stroke-miterlimit:10;" d="
		M122.12,1.57c0.51,0.51,0.18,0.88-3.64,2.18c-7.6,2.59-17.79-0.37-20.2-1.67c-2.41-1.3-26.13,9.64-23.53,12.79
		c2.59,3.15,2.96,4.26-1.67,4.82c-4.63,0.56-2.78,10.01-9.64,6.49c-6.86-3.52,8.52-7.78,3.71-10.38s-2.22,4.26-6.49,4.08
		c-4.26-0.19-7.78,4.63-5,5.74c2.78,1.11,1.11,3.89-2.41,5c-3.52,1.11,2.59,0.19-1.3,7.41c-3.89,7.23-4.26-6.67-8.15,1.11
		c-3.89,7.78-8.71,6.11-6.67,11.49c2.04,5.37,8.89,0.74,9.82-2.59c0.93-3.34,7.97-5,11.86-7.78c3.89-2.78,5.74,1.11,8.52,8.15
		c2.78,7.04,4.08,0.56,5.93-1.11c1.85-1.67-6.49-0.74-5.74-6.86c0.74-6.11,3.15-0.37,7.04,1.85c3.89,2.22,1.11,16.86,5.56,8.89
		c4.45-7.97,7.97-2.41,5.93,1.85c-2.04,4.26,6.3,2.41,12.04,2.59c5.74,0.19,4.82,1.48,3.15,8.71c-1.67,7.23-6.67-2.04-10.38,2.22
		c-3.71,4.26-16.31-6.3-17.05-1.85c-0.74,4.45-0.93,5.56-7.04-0.37c-6.11-5.93-10.75,7.6-7.78-4.63
		c2.96-12.23-13.34-4.45-19.27-4.26c-5.93,0.19-14.08,11.86-20.2,20.01c-6.11,8.15-5.19,26.5,0.19,29.28c5.37,2.78,6.3,7.6,15.75,5
		c9.45-2.59,2.78,7.04,7.23,5.56s8.52,3.89,5.93,5.37c-2.59,1.48,2.59,11.86,4.08,12.42c1.48,0.56,5,14.27,2.22,16.86
		s8.71,12.23,9.82,18.34c1.11,6.11,13.34,17.05,25.76,12.23s2.59-10.19,6.3-8.71c3.71,1.48,6.49-0.37,4.63-6.11
		c-1.85-5.74,10.01-5.19,11.86-7.78c1.85-2.59,0.74-11.67-1.67-13.71s0.74-14.64,12.42-19.46c11.67-4.82,15.04-18.94,12.79-20.01
		c-2.25-1.07-10.38,3.71-14.08,3.34c-3.71-0.37-2.22-5.93-6.49-5.93s-10.38-16.12-14.82-22.05s-3.34-7.97-1.48-7.97
		c1.85,0,16.49,17.6,18.72,25.94c2.22,8.34,9.27,2.22,18.72-2.59c9.45-4.82,3.52-5.56,9.45-8.71c5.93-3.15,2.78-8.71,0-8.52
		s-1.3-4.63-6.3-0.93c-5,3.71-7.52-1.78-12.8-5.95c-5.28-4.17,3.61-4.45,5-1.95c1.39,2.5,10.29,5.28,21.13,2.22
		c10.84-3.06,4.73,5.28,12.23,5.28c7.51,0,6.67,6.95,13.07,20.01c6.39,13.07,9.17-2.5,6.95-6.67c-2.22-4.17,4.17-15.84,4.17-18.35
		s8.06-4.73,9.17,5.56c0.11,1.03,0.25,1.88,0.42,2.58C197.21,32.92,156.72,7.81,122.12,1.57z"/>
	<path class="st3" d="M96.39,39.67c0,0-5.49-5.49-6.34-2.54c-0.85,2.96-2.4,5.78-4.09,6.2s0.14,6.2,4.93,3.52
		c4.79-2.68,11.41-1.55,12.54-0.42c1.13,1.13,1.13,1.13,1.13,1.13s6.06-1.27,3.38-4.93c-2.68-3.66-6.76-1.13-6.2-5.07
		s-1.69-2.82-2.82-1.69C97.8,36.99,95.69,34.17,96.39,39.67z"/>
	<path class="st3" d="M119.5,34.88c0,0-4.37,2.96-2.96,5.21c1.41,2.25,5.07,5.35,4.65,9.44c-0.42,4.09,7.19,5.07,8.17,3.52
		c0.99-1.55-1.41-7.89-4.09-7.89c-2.68,0,1.13-3.52-1.83-5.21C120.48,38.26,122.74,34.31,119.5,34.88z"/>
</g>
</svg>
