<?xml version="1.0" encoding="utf-8"?>
<!-- Generator: Adobe Illustrator 26.3.1, SVG Export Plug-In . SVG Version: 6.00 Build 0)  -->
<svg version="1.1" id="Layer_1" xmlns="http://www.w3.org/2000/svg" xmlns:xlink="http://www.w3.org/1999/xlink" x="0px" y="0px"
	 viewBox="0 0 200 200" style="enable-background:new 0 0 200 200;" xml:space="preserve">
<style type="text/css">
	.st0{fill:#698442;}
	.st1{fill:#8DB942;}
</style>
<g>
	<g>
		<g>
			<path class="st0" d="M30.09,141.94l13.73-24.54l11.22,6.87l-8.51-53.49L0,90.11l9.06,7.33c0,0-8.28,14.37-6.45,24.61
				C7.08,128.9,15.29,137.21,30.09,141.94z"/>
			<path class="st0" d="M7.02,134.58c0,0,0.32,0.68,0.89,1.9c-0.36-0.79-0.72-1.57-1.06-2.34C7.02,134.58,7.02,134.58,7.02,134.58z"
				/>
			<path class="st1" d="M10.5,141.9c-1.1-2.27-1.99-4.14-2.59-5.42C8.72,138.24,9.59,140.05,10.5,141.9z"/>
			<path class="st1" d="M80.55,189.68l-2.59-45.6c-3.12,0.46-6.12,0.81-9.01,1.07c-16.39,1.48-29.07-0.08-38.87-3.21
				c-14.8-4.73-23.01-13.04-27.47-19.89c0.14,0.8,0.34,1.57,0.62,2.31c2.46,6.64,3.32,8.96,3.62,9.78c0.34,0.77,0.69,1.55,1.06,2.34
				c0.6,1.28,1.49,3.15,2.6,5.42c8.49,17.14,20.67,36.79,25.03,43.68c0.78,1.23,1.95,2.24,3.41,3.06
				c9.81,5.49,32.84,2.43,40.12,1.29c0.96-0.06,1.49-0.09,1.49-0.09L80.55,189.68z"/>
		</g>
		<g>
			<path class="st0" d="M105.16,18.48l13.62,24.62l-10.96,7.34l47.92,17.35l6.21-53.13l-10.31,5.08c0,0-7.86-14.64-17.13-17.77
				C126.78,2.94,116.06,6.75,105.16,18.48z"/>
			<path class="st0" d="M122.14,0.19c0,0-0.71-0.02-1.98-0.06c0.82,0.03,1.63,0.07,2.42,0.11C122.15,0.19,122.14,0.19,122.14,0.19z"
				/>
			<path class="st1" d="M114.48,0c2.39,0.04,4.34,0.09,5.68,0.12C118.33,0.06,116.43,0.02,114.48,0z"/>
			<path class="st1" d="M132.33,1.46c-6.61-0.83-8.93-1.12-9.74-1.22c-0.79-0.04-1.6-0.08-2.42-0.11c-1.34-0.04-3.29-0.08-5.68-0.12
				C96.4-0.11,74.49,2.07,66.77,2.91c-1.38,0.15-2.76,0.78-4.12,1.77c-9.16,6.66-17.58,29.86-20.09,37.28
				c-0.41,0.93-0.63,1.46-0.63,1.46l0.13,0.06l38.64,19.2c1.11-3.16,2.24-6.17,3.39-9.01c6.57-16.18,13.86-27.42,21.08-35.18
				c10.9-11.73,21.62-15.54,29.35-16.51C133.79,1.73,133.06,1.55,132.33,1.46z"/>
		</g>
		<g>
			<path class="st0" d="M166.09,143.46l-26.66-1.12l0.21-13.86l-39.62,33.72l38.18,34.48l1.63-12.05c0,0,15.73,0.87,23.21-5.77
				C166.5,171.37,169.35,159.65,166.09,143.46z"/>
			<path class="st0" d="M180.96,72.95l-0.12,0.08c0.23,0.32,0.54,0.75,0.91,1.28C181.25,73.44,180.96,72.95,180.96,72.95z"/>
			<path class="st0" d="M171.17,168.7c0,0,0.41-0.63,1.12-1.75c-0.47,0.72-0.94,1.43-1.4,2.12
				C171.17,168.7,171.17,168.7,171.17,168.7z"/>
			<path class="st1" d="M175.48,161.9c-1.33,2.13-2.43,3.86-3.18,5.05C173.35,165.33,174.41,163.64,175.48,161.9z"/>
			<path class="st1" d="M150.03,105.35c9.09,14.71,13.92,27.39,16.07,38.11l0.91,0.04C163.82,128.69,155.56,114.01,150.03,105.35z"
				/>
			<path class="st1" d="M181.75,74.31c-0.37-0.53-0.68-0.96-0.91-1.28l-36.02,24.36c1.87,2.72,3.61,5.37,5.21,7.96
				c5.54,8.66,13.79,23.34,16.98,38.14l-0.91-0.04c3.25,16.19,0.41,27.92-3.04,35.41c0.58-0.52,1.12-1.08,1.59-1.69
				c4.24-5.51,5.73-7.43,6.25-8.11c0.47-0.69,0.93-1.4,1.4-2.12c0.75-1.18,1.85-2.92,3.18-5.05c9.92-16.22,20.13-37.14,23.66-44.55
				c0.63-1.32,0.89-2.91,0.86-4.68C199.77,100.8,186.2,80.61,181.75,74.31z"/>
		</g>
	</g>
</g>
</svg>
